<?xml version="1.0" encoding="UTF-8" standalone="no"?>
<!-- Created with Inkscape (http://www.inkscape.org/) -->

<svg
   xmlns:dc="http://purl.org/dc/elements/1.1/"
   xmlns:cc="http://creativecommons.org/ns#"
   xmlns:rdf="http://www.w3.org/1999/02/22-rdf-syntax-ns#"
   xmlns:svg="http://www.w3.org/2000/svg"
   xmlns="http://www.w3.org/2000/svg"
   xmlns:sodipodi="http://sodipodi.sourceforge.net/DTD/sodipodi-0.dtd"
   xmlns:inkscape="http://www.inkscape.org/namespaces/inkscape"
   width="210mm"
   height="297mm"
   viewBox="0 0 210 297"
   version="1.1"
   id="svg8"
   inkscape:version="0.92.5 (2060ec1f9f, 2020-04-08)"
   sodipodi:docname="mobile_mockups.svg">
  <defs
     id="defs2" />
  <sodipodi:namedview
     id="base"
     pagecolor="#ffffff"
     bordercolor="#666666"
     borderopacity="1.0"
     inkscape:pageopacity="0.0"
     inkscape:pageshadow="2"
     inkscape:zoom="0.98994949"
     inkscape:cx="-769.76698"
     inkscape:cy="-281.1427"
     inkscape:document-units="mm"
     inkscape:current-layer="layer2"
     showgrid="false"
     inkscape:window-width="1440"
     inkscape:window-height="848"
     inkscape:window-x="0"
     inkscape:window-y="0"
     inkscape:window-maximized="1" />
  <metadata
     id="metadata5">
    <rdf:RDF>
      <cc:Work
         rdf:about="">
        <dc:format>image/svg+xml</dc:format>
        <dc:type
           rdf:resource="http://purl.org/dc/dcmitype/StillImage" />
        <dc:title></dc:title>
      </cc:Work>
    </rdf:RDF>
  </metadata>
  <g
     inkscape:label="Capa 1"
     inkscape:groupmode="layer"
     id="layer1"
     sodipodi:insensitive="true">
    <rect
       style="fill:#ffffff;stroke:#000000;stroke-width:1;stroke-miterlimit:4;stroke-dasharray:none;stroke-dashoffset:0"
       id="rect817"
       width="107.34524"
       height="189.74405"
       x="-360.58926"
       y="330.2619" />
    <rect
       y="329.50595"
       x="-232.83333"
       height="189.74405"
       width="107.34524"
       id="rect819"
       style="fill:#ffffff;stroke:#000000;stroke-width:1;stroke-miterlimit:4;stroke-dasharray:none;stroke-dashoffset:0" />
    <rect
       y="329.50595"
       x="-105.83331"
       height="189.74405"
       width="107.34524"
       id="rect823"
       style="fill:#ffffff;stroke:#000000;stroke-width:1;stroke-miterlimit:4;stroke-dasharray:none;stroke-dashoffset:0" />
    <rect
       style="fill:#ffffff;stroke:#000000;stroke-width:1;stroke-miterlimit:4;stroke-dasharray:none;stroke-dashoffset:0"
       id="rect825"
       width="107.34524"
       height="189.74405"
       x="21.922625"
       y="328.75" />
    <rect
       y="537.39288"
       x="-359.83331"
       height="189.74405"
       width="107.34524"
       id="rect827"
       style="fill:#ffffff;stroke:#000000;stroke-width:1;stroke-miterlimit:4;stroke-dasharray:none;stroke-dashoffset:0" />
    <rect
       style="fill:#ffffff;stroke:#000000;stroke-width:1;stroke-miterlimit:4;stroke-dasharray:none;stroke-dashoffset:0"
       id="rect829"
       width="107.34524"
       height="189.74405"
       x="-232.07738"
       y="536.6369" />
    <rect
       style="fill:#ffffff;stroke:#000000;stroke-width:1;stroke-miterlimit:4;stroke-dasharray:none;stroke-dashoffset:0"
       id="rect831"
       width="107.34524"
       height="189.74405"
       x="-105.07736"
       y="536.6369" />
    <rect
       y="535.88098"
       x="22.678577"
       height="189.74405"
       width="107.34524"
       id="rect833"
       style="fill:#ffffff;stroke:#000000;stroke-width:1;stroke-miterlimit:4;stroke-dasharray:none;stroke-dashoffset:0" />
  </g>
  <g
     inkscape:groupmode="layer"
     id="layer2"
     inkscape:label="widgets">
    <rect
       style="fill:#ffffff;stroke:#000000;stroke-width:1;stroke-miterlimit:4;stroke-dasharray:none;stroke-dashoffset:0"
       id="rect836"
       width="73.327377"
       height="13.607142"
       x="-344.33633"
       y="369.19345" />
    <rect
       style="fill:#ffffff;stroke:#000000;stroke-width:1;stroke-miterlimit:4;stroke-dasharray:none;stroke-dashoffset:0"
       id="rect838"
       width="74.083351"
       height="33.261902"
       x="-345.84824"
       y="400.1875" />
    <text
       xml:space="preserve"
       style="font-style:normal;font-weight:normal;font-size:5.64444447px;line-height:1.25;font-family:sans-serif;letter-spacing:0px;word-spacing:0px;fill:#000000;fill-opacity:1;stroke:none;stroke-width:0.26458332"
       x="-340.17859"
       y="340.84525"
       id="text842"><tspan
         sodipodi:role="line"
         id="tspan840"
         x="-340.17859"
         y="345.83926"
         style="stroke-width:0.26458332" /></text>
    <text
       xml:space="preserve"
       style="font-style:normal;font-weight:normal;font-size:5.64444447px;line-height:1.25;font-family:sans-serif;letter-spacing:0px;word-spacing:0px;fill:#000000;fill-opacity:1;stroke:none;stroke-width:0.26458332"
       x="-344.33636"
       y="363.90176"
       id="text846"><tspan
         sodipodi:role="line"
         id="tspan844"
         x="-344.33636"
         y="363.90176"
         style="stroke-width:0.26458332">tu nombre/alias</tspan></text>
    <text
       xml:space="preserve"
       style="font-style:normal;font-weight:normal;font-size:5.64444447px;line-height:1.25;font-family:sans-serif;letter-spacing:0px;word-spacing:0px;fill:#000000;fill-opacity:1;stroke:none;stroke-width:0.26458332"
       x="-345.84824"
       y="394.13989"
       id="text850"><tspan
         sodipodi:role="line"
         id="tspan848"
         x="-345.84824"
         y="394.13989"
         style="stroke-width:0.26458332">descripcion de tu sitio</tspan></text>
    <rect
       style="fill:#ffffff;stroke:#000000;stroke-width:1;stroke-miterlimit:4;stroke-dasharray:none;stroke-dashoffset:0"
       id="rect856"
       width="60.476189"
       height="15.497024"
       x="-338.66669"
       y="453.10416" />
    <text
       xml:space="preserve"
       style="font-style:normal;font-weight:normal;font-size:5.64444447px;line-height:1.25;font-family:sans-serif;letter-spacing:0px;word-spacing:0px;fill:#000000;fill-opacity:1;stroke:none;stroke-width:0.26458332"
       x="-317.12201"
       y="462.93155"
       id="text860"><tspan
         sodipodi:role="line"
         id="tspan858"
         x="-317.12201"
         y="462.93155"
         style="stroke-width:0.26458332">iniciar</tspan></text>
    <rect
       y="363.5238"
       x="-216.20241"
       height="13.607142"
       width="73.327377"
       id="rect862"
       style="fill:#ffffff;stroke:#000000;stroke-width:1;stroke-miterlimit:4;stroke-dasharray:none;stroke-dashoffset:0" />
    <rect
       y="386.59415"
       x="-216.18858"
       height="106.93965"
       width="73.299797"
       id="rect864"
       style="fill:#ffffff;stroke:#000000;stroke-width:1.7835567;stroke-miterlimit:4;stroke-dasharray:none;stroke-dashoffset:0" />
    <text
       id="text868"
       y="396.40771"
       x="-211.66667"
       style="font-style:normal;font-weight:normal;font-size:5.64444447px;line-height:1.25;font-family:sans-serif;letter-spacing:0px;word-spacing:0px;fill:#000000;fill-opacity:1;stroke:none;stroke-width:0.26458332"
       xml:space="preserve"><tspan
         style="stroke-width:0.26458332"
         y="396.40771"
         x="-211.66667"
         id="tspan866"
         sodipodi:role="line">escribe algo</tspan></text>
    <text
       xml:space="preserve"
       style="font-style:normal;font-weight:normal;font-size:5.64444447px;line-height:1.25;font-family:sans-serif;letter-spacing:0px;word-spacing:0px;fill:#000000;fill-opacity:1;stroke:none;stroke-width:0.26458332"
       x="-210.15475"
       y="371.83929"
       id="text872"><tspan
         sodipodi:role="line"
         id="tspan870"
         x="-210.15475"
         y="371.83929"
         style="stroke-width:0.26458332">da un titulo</tspan></text>
    <flowRoot
       xml:space="preserve"
       id="flowRoot874"
       style="fill:black;fill-opacity:1;stroke:none;font-family:sans-serif;font-style:normal;font-weight:normal;font-size:21.33333333px;line-height:1.25;letter-spacing:0px;word-spacing:0px"><flowRegion
         id="flowRegion876"><rect
           id="rect878"
           width="405.71426"
           height="62.857147"
           x="-880"
           y="1245.3768" /></flowRegion><flowPara
         id="flowPara880"></flowPara></flowRoot>    <rect
       style="fill:#ffffff;stroke:#000000;stroke-width:1;stroke-miterlimit:4;stroke-dasharray:none;stroke-dashoffset:0"
       id="rect882"
       width="107.34523"
       height="18.142859"
       x="-232.83333"
       y="329.50595" />
    <path
       style="fill:#000000;stroke-width:0.00383768"
       d="m -138.92199,343.73004 c -0.005,-7.5e-4 -0.0225,-0.003 -0.0384,-0.006 -0.24436,-0.035 -0.46,-0.21422 -0.55818,-0.46387 -0.0184,-0.0468 -0.0381,-0.11894 -0.0457,-0.16732 -0.007,-0.0444 -0.006,-0.0353 -0.0716,-0.93042 -0.20867,-2.86021 -0.29314,-4.01718 -0.47356,-6.48569 -0.0428,-0.58572 -0.0771,-1.06625 -0.0763,-1.06784 0.002,-0.004 7.23421,-0.004 7.23626,0 9.4e-4,0.002 -0.0188,0.28092 -0.0436,0.62074 -0.0249,0.33983 -0.0618,0.84497 -0.082,1.12252 -0.0203,0.27756 -0.0661,0.90531 -0.10189,1.395 -0.0358,0.48969 -0.10398,1.42397 -0.15155,2.07619 -0.0476,0.65221 -0.0994,1.36198 -0.11512,1.57728 -0.0157,0.2153 -0.0434,0.5935 -0.0614,0.84045 -0.0661,0.90728 -0.0605,0.84308 -0.0822,0.92714 -0.0154,0.0596 -0.0276,0.0926 -0.0561,0.15126 -0.0402,0.0829 -0.0805,0.1395 -0.14681,0.20659 -0.10948,0.11078 -0.24502,0.17869 -0.39912,0.19997 -0.0389,0.005 -0.28343,0.006 -2.3832,0.005 -1.28694,0 -2.34422,-0.001 -2.34949,-0.002 z m 0.43373,-1.16832 c 0.0986,-0.0273 0.17431,-0.10742 0.19467,-0.2059 0.007,-0.0339 0.008,-7.4e-4 -0.0202,-1.12549 -0.005,-0.20791 -0.0154,-0.62584 -0.0228,-0.92872 -0.062,-2.53016 -0.0642,-2.62018 -0.0902,-3.67267 -0.0171,-0.69183 -0.0139,-0.64361 -0.0469,-0.70996 -0.0129,-0.026 -0.0233,-0.0397 -0.051,-0.0676 -0.0298,-0.03 -0.04,-0.0375 -0.0711,-0.0525 -0.0588,-0.0284 -0.11235,-0.0357 -0.17175,-0.0234 -0.0596,0.0123 -0.10723,0.0387 -0.14751,0.0819 -0.0288,0.0308 -0.046,0.0588 -0.0597,0.0969 -0.009,0.0251 -0.0102,0.0349 -0.0115,0.0915 -7.5e-4,0.0348 0.004,0.2766 0.0104,0.53727 0.006,0.26068 0.0196,0.79172 0.0291,1.18009 0.01,0.38837 0.0225,0.91596 0.0288,1.17241 0.0289,1.16918 0.0547,2.22813 0.0669,2.74778 0.007,0.31133 0.0151,0.58937 0.0171,0.61787 0.006,0.0861 0.0284,0.13648 0.0844,0.19196 0.0714,0.0707 0.16532,0.0954 0.26143,0.0687 z m 1.27795,0 c 0.0936,-0.0259 0.16737,-0.1018 0.19178,-0.19724 0.008,-0.0301 0.008,-0.0384 0.008,-3.19307 0,-3.16231 0,-3.16294 -0.008,-3.1933 -0.0153,-0.0598 -0.0451,-0.10712 -0.0911,-0.14465 -0.10148,-0.0829 -0.23561,-0.0851 -0.34049,-0.006 -0.0489,0.037 -0.0879,0.0978 -0.10002,0.15586 -0.005,0.0238 -0.006,0.4169 -0.005,3.2001 l 9.4e-4,3.17299 0.0104,0.0281 c 0.0523,0.14097 0.19311,0.21579 0.33315,0.17699 z m 1.43205,0 c 0.0938,-0.026 0.16729,-0.10176 0.19123,-0.1972 0.008,-0.0306 0.008,-0.038 0.007,-3.20446 l -9.4e-4,-3.17376 -0.009,-0.0249 c -0.0127,-0.035 -0.0239,-0.056 -0.0446,-0.0836 -0.0768,-0.10218 -0.2178,-0.13659 -0.3332,-0.0813 -0.074,0.0355 -0.12837,0.10191 -0.14854,0.18172 -0.008,0.0302 -0.008,0.0434 -0.008,3.19329 0,3.14642 0,3.16311 0.008,3.1933 0.0147,0.0585 0.0477,0.10896 0.097,0.14853 0.0674,0.0541 0.15635,0.0719 0.24142,0.0483 z m 1.28026,-7.5e-4 c 0.0455,-0.0132 0.0786,-0.0336 0.11658,-0.0717 0.0279,-0.028 0.036,-0.0392 0.0505,-0.0695 0.0229,-0.0477 0.0289,-0.0749 0.0316,-0.14162 0.001,-0.0306 0.015,-0.58495 0.0307,-1.23188 0.0157,-0.64694 0.0311,-1.28073 0.0343,-1.40843 0.005,-0.20901 0.0143,-0.57726 0.0519,-2.11264 0.006,-0.25962 0.0167,-0.68031 0.023,-0.93487 0.0142,-0.57228 0.0142,-0.57953 0.004,-0.61883 -0.0159,-0.0612 -0.0591,-0.12015 -0.11458,-0.15646 -0.0324,-0.0212 -0.057,-0.0311 -0.0979,-0.0395 -0.059,-0.0122 -0.11274,-0.005 -0.17116,0.0233 -0.0301,0.0145 -0.0416,0.0229 -0.0695,0.0506 -0.0447,0.0445 -0.0657,0.0824 -0.079,0.14259 -0.006,0.0284 -0.004,-0.0613 -0.088,3.37141 -0.01,0.38837 -0.0224,0.91077 -0.0285,1.16089 -0.045,1.82114 -0.0445,1.79789 -0.0376,1.83151 0.0268,0.12972 0.14785,0.22282 0.28021,0.21555 0.0185,-9.4e-4 0.047,-0.006 0.0634,-0.0105 z m -5.90533,-8.54 c 0,-0.3056 9.3e-4,-0.36539 0.006,-0.40008 0.0404,-0.27493 0.23955,-0.49511 0.51037,-0.56418 0.0799,-0.0204 0.0336,-0.0196 1.21464,-0.0196 h 1.09354 v -0.0854 c 4e-5,-0.11829 0.009,-0.16661 0.0426,-0.24021 0.0648,-0.14027 0.19916,-0.24286 0.35013,-0.26734 0.0519,-0.008 1.1894,-0.009 1.23718,-1.5e-4 0.1536,0.027 0.28537,0.12777 0.34993,0.26752 0.0339,0.0733 0.0426,0.12214 0.0426,0.23823 v 0.0873 l 1.1158,10e-4 c 1.22706,0.001 1.12201,-7.5e-4 1.21291,0.024 0.22885,0.0621 0.41748,0.25515 0.47608,0.4872 0.0193,0.0763 0.0197,0.0875 0.0197,0.47157 v 0.35929 h -3.83576 -3.83577 v -0.35929 z"
       id="path895"
       inkscape:connector-curvature="0" />
    <path
       style="fill:#000000;stroke-width:0.00441619"
       d="m -162.88265,338.05541 v -6.20916 h 6.20696 6.20695 v 0.59728 0.59729 l 0.59619,-0.59618 0.59619,-0.59617 0.78608,0.78607 0.78608,0.78608 -1.38227,1.38228 -1.38227,1.38226 v 4.03971 4.03971 h -6.20695 -6.20696 z m 11.30103,2.16946 v -2.92683 l -2.54593,2.54593 -2.54593,2.54594 -1.87247,-1.87247 -1.87247,-1.87247 0.78608,-0.78607 0.78609,-0.78609 1.08638,1.08639 1.08639,1.08638 2.54593,-2.54593 2.54593,-2.54593 v -0.5973 -0.59729 h -5.09407 -5.09408 v 5.09628 5.09629 h 5.09408 5.09407 z"
       id="path908"
       inkscape:connector-curvature="0" />
    <path
       style="fill:#000000;stroke-width:0.03388598"
       d="m -173.35773,345.33798 c -0.58881,-0.10645 -1.11882,-0.39679 -1.55182,-0.85009 -0.58209,-0.60937 -0.88291,-1.48263 -0.78491,-2.27856 0.0465,-0.37814 0.20362,-0.85248 0.38526,-1.16348 0.182,-0.31163 0.58805,-0.7337 0.90779,-0.9436 0.84236,-0.553 1.91559,-0.61517 2.83171,-0.16402 0.74696,0.36784 1.28428,1.01238 1.51534,1.81773 0.10046,0.35015 0.10778,1.12591 0.0138,1.46698 -0.40534,1.47174 -1.83468,2.38307 -3.31722,2.11504 z m 0.95782,-1.91173 v -0.4744 h 0.47441 0.4744 v -0.44051 -0.44052 h -0.4744 -0.47441 v -0.47441 -0.4744 h -0.42357 -0.42358 v 0.47347 0.47348 l -0.48287,0.009 -0.48288,0.009 v 0.42358 0.42357 l 0.48288,0.009 0.48287,0.009 v 0.47347 0.47347 h 0.42358 0.42357 z m -10.23196,-3.46484 0.002,-4.65085 1.64767,-1.73665 1.64768,-1.73666 h 3.50139 3.50139 v 3.69223 3.69222 l -0.3894,-0.007 -0.3894,-0.007 -0.009,-3.28694 -0.009,-3.28694 h -2.84642 -2.84642 l -0.009,1.49911 -0.009,1.4991 -1.49911,0.009 -1.4991,0.009 -0.009,4.07479 -0.009,4.07479 h 2.98153 2.98153 l 0.0821,0.16206 c 0.0452,0.0891 0.15216,0.26651 0.23777,0.39418 0.0856,0.12766 0.15565,0.23772 0.15565,0.24457 0,0.007 -1.62399,0.0125 -3.60886,0.0125 h -3.60886 z m 3.01253,-5.87921 -0.002,-0.77091 -0.45743,0.4744 c -0.25158,0.26093 -0.5803,0.60783 -0.73049,0.77091 l -0.27307,0.2965 h 0.73222 0.73221 z m -1.25206,7.88696 v -0.44052 h 2.44341 c 2.31336,0 2.44218,0.003 2.4201,0.0593 -0.042,0.10685 -0.11947,0.5537 -0.11947,0.68917 v 0.13257 h -2.37202 -2.37202 z m 0,-1.86373 v -0.44052 h 3.17635 3.17636 l -0.18591,0.12335 c -0.10226,0.0678 -0.32682,0.26608 -0.49902,0.44052 l -0.31309,0.31717 h -2.67734 -2.67735 z m 0,-1.76207 v -0.44052 h 3.37165 3.37166 v 0.44052 0.44052 h -3.37166 -3.37165 z"
       id="path921"
       inkscape:connector-curvature="0" />
    <text
       xml:space="preserve"
       style="font-style:normal;font-weight:normal;font-size:5.64444447px;line-height:1.25;font-family:sans-serif;letter-spacing:0px;word-spacing:0px;fill:#000000;fill-opacity:1;stroke:none;stroke-width:0.26458332"
       x="-358.94296"
       y="319.98517"
       id="text925"><tspan
         sodipodi:role="line"
         id="tspan923"
         x="-358.94296"
         y="319.98517"
         style="stroke-width:0.26458332">ownBlog</tspan></text>
  </g>
</svg>
